<svg width="317" height="265" viewBox="0 0 317 265" fill="none" xmlns="http://www.w3.org/2000/svg">
<g clip-path="url(#clip0)">
<path d="M238.903 81.2178H79.917V82.0909H238.903V81.2178Z" fill="#CCCCCC"/>
<path d="M159.677 0.437012H158.892V81.653H159.677V0.437012Z" fill="#CCCCCC"/>
<path d="M226.235 40.6089H92.3341V41.482H226.235V40.6089Z" fill="#CCCCCC"/>
<path d="M184.605 144.214C184.607 148.656 183.158 152.947 180.529 156.289C180.294 156.591 180.047 156.879 179.796 157.163H156.452C156.201 156.879 155.954 156.591 155.718 156.289C154.176 154.334 153.027 152.034 152.348 149.545C152.348 149.545 152.352 149.545 152.348 149.54C151.879 147.813 151.641 146.019 151.642 144.214C151.641 143.471 151.682 142.729 151.764 141.992C152.252 137.551 154.182 133.461 157.192 130.493C160.201 127.525 164.082 125.883 168.103 125.877C172.124 125.872 176.008 127.502 179.025 130.461C182.041 133.42 183.981 137.504 184.48 141.944C184.563 142.697 184.605 143.455 184.605 144.214Z" fill="#2F2E41"/>
<path d="M147.35 157.163H145.333L146.899 156.289L146.946 156.263L146.958 156.289L147.35 157.163Z" fill="#2F2E41"/>
<path d="M161.093 157.163H159.077L159.469 156.289L159.481 156.263L159.528 156.289L161.093 157.163Z" fill="#2F2E41"/>
<path d="M166.969 145.997C170.081 145.997 172.603 143.19 172.603 139.728C172.603 136.266 170.081 133.46 166.969 133.46C163.858 133.46 161.336 136.266 161.336 139.728C161.336 143.19 163.858 145.997 166.969 145.997Z" fill="white"/>
<path d="M166.378 142.456C167.108 141.643 167.104 140.321 166.369 139.502C165.633 138.684 164.445 138.679 163.715 139.492C162.985 140.305 162.989 141.627 163.724 142.445C164.46 143.263 165.648 143.268 166.378 142.456Z" fill="#3F3D56"/>
<path d="M181.126 124.262C181.374 117.472 176.115 111.721 169.379 111.416C162.644 111.112 156.983 116.37 156.735 123.16C156.487 129.95 161.169 131.493 167.904 131.797C174.64 132.101 180.878 131.052 181.126 124.262Z" fill="#6892FF"/>
<path d="M172.65 151.443C172.739 151.982 172.731 152.536 172.626 153.073C172.522 153.609 172.324 154.118 172.044 154.569C171.763 155.02 171.405 155.406 170.991 155.703C170.576 156 170.113 156.204 169.628 156.302C169.143 156.401 168.645 156.392 168.163 156.276C167.681 156.16 167.224 155.94 166.819 155.627C166.413 155.315 166.067 154.917 165.799 154.456C165.532 153.995 165.349 153.479 165.261 152.939L165.259 152.931C164.89 150.66 166.468 149.857 168.509 149.446C170.55 149.034 172.281 149.172 172.65 151.443Z" fill="white"/>
<path d="M253.835 156.289H60.8106C58.9377 156.289 57.1415 157.116 55.8171 158.59C54.4928 160.064 53.7488 162.063 53.7488 164.147C53.7488 166.231 54.4928 168.229 55.8171 169.703C57.1415 171.177 58.9377 172.005 60.8106 172.005H253.835C255.708 172.005 257.505 171.177 258.829 169.703C260.153 168.229 260.897 166.231 260.897 164.147C260.897 162.063 260.153 160.064 258.829 158.59C257.505 157.116 255.708 156.289 253.835 156.289Z" fill="#CCCCCC"/>
<path d="M239.319 89.0583V156.725H238.535V89.0583C238.535 86.7139 238.452 84.3914 238.288 82.0908C238.268 81.7982 238.248 81.5101 238.225 81.2176C237.101 67.0638 232.9 53.4265 225.984 41.4819C225.815 41.1894 225.647 40.9013 225.474 40.6088C218.299 28.4652 208.537 18.4834 197.058 11.5517C185.579 4.61989 172.737 0.953084 159.677 0.87749C159.547 0.873124 159.414 0.87312 159.285 0.87312C159.155 0.87312 159.022 0.873124 158.892 0.87749C157.405 0.881856 155.93 0.934243 154.467 1.03465C148.733 1.41565 143.053 2.49457 137.53 4.2521C134.401 5.24624 131.331 6.45641 128.338 7.87555C113.961 14.7066 101.705 26.0895 93.0952 40.6088C92.9226 40.9013 92.7538 41.1894 92.5853 41.4819C85.6694 53.4265 81.4684 67.0638 80.3446 81.2176C80.321 81.5101 80.3015 81.7982 80.2818 82.0908C80.117 84.3914 80.0347 86.7139 80.0347 89.0583V156.725H79.25V89.0583C79.25 86.404 79.3533 83.7802 79.5599 81.1871C80.7023 66.679 85.0486 52.7098 92.2125 40.5215C102.86 22.2953 119.126 9.02696 137.95 3.21308C143.46 1.51698 149.119 0.486569 154.828 0.139702C156.303 0.0480248 157.789 0.0014552 159.285 0C179.284 0.0223083 198.554 8.36671 213.306 23.3935C228.058 38.4203 237.226 59.0429 239.009 81.2089C239.213 83.7933 239.317 86.4098 239.319 89.0583Z" fill="#3F3D56"/>
<path d="M137.171 219.186C159.382 219.608 159.378 256.37 137.171 256.788C114.961 256.366 114.964 219.604 137.171 219.186Z" fill="#2F2E41"/>
<path d="M134.605 252.743H129.472V262.976H134.605V252.743Z" fill="#2F2E41"/>
<path d="M144.871 252.743H139.738V262.976H144.871V252.743Z" fill="#2F2E41"/>
<path d="M133.749 261.31C139.296 261.267 139.296 264.924 133.749 264.88C128.203 264.924 128.203 261.266 133.749 261.31Z" fill="#2F2E41"/>
<path d="M144.015 261.073C149.562 261.029 149.562 264.687 144.015 264.643C138.469 264.686 138.469 261.029 144.015 261.073Z" fill="#2F2E41"/>
<path d="M137.599 226.801C145.151 226.839 145.151 239.616 137.599 239.653C130.047 239.615 130.048 226.838 137.599 226.801Z" fill="white"/>
<path d="M137.599 231.085C140.097 231.045 140.097 235.41 137.599 235.369C135.102 235.41 135.102 231.044 137.599 231.085Z" fill="#3F3D56"/>
<path d="M120.781 220.502C117.607 204.397 141.923 198.358 145.204 214.435C146.568 221.233 142.098 223.741 135.354 225.416C128.61 227.092 122.146 227.301 120.781 220.502Z" fill="#CCCCCC"/>
<path d="M144.537 168.711C148.473 157.241 153.434 159.352 149.491 170.819C145.555 182.289 140.594 180.178 144.537 168.711Z" fill="#2F2E41"/>
<path d="M114.718 180.951C118.65 156.623 151.261 162.516 148.075 186.975C144.143 211.302 111.532 205.409 114.718 180.951Z" fill="#2F2E41"/>
<path d="M128.83 198.718H123.697V208.952H128.83V198.718Z" fill="#2F2E41"/>
<path d="M139.096 198.718H133.963V208.952H139.096V198.718Z" fill="#2F2E41"/>
<path d="M127.975 207.286C133.521 207.242 133.521 210.9 127.974 210.856C122.428 210.9 122.428 207.242 127.975 207.286Z" fill="#2F2E41"/>
<path d="M138.241 207.048C143.787 207.004 143.787 210.662 138.24 210.618C132.694 210.661 132.694 207.004 138.241 207.048Z" fill="#2F2E41"/>
<path d="M115.006 166.477C111.832 150.372 136.148 144.333 139.429 160.41C140.793 167.208 136.324 169.716 129.58 171.391C122.836 173.067 116.371 173.276 115.006 166.477Z" fill="#6892FF"/>
<path d="M104.732 171.21C105.926 167.635 121.733 175.976 119.999 179.268C118.805 182.843 102.998 174.501 104.732 171.21Z" fill="#2F2E41"/>
<path d="M190.627 158.185C191.711 157.149 190.186 153.194 187.222 149.351C184.257 145.508 180.975 143.233 179.891 144.268C178.806 145.304 180.331 149.259 183.296 153.102C186.26 156.945 189.543 159.22 190.627 158.185Z" fill="#2F2E41"/>
<path d="M152.997 153.101C155.962 149.259 157.487 145.304 156.402 144.268C155.318 143.232 152.036 145.508 149.071 149.351C146.106 153.194 144.582 157.149 145.666 158.184C146.75 159.22 150.033 156.944 152.997 153.101Z" fill="#2F2E41"/>
<path d="M299.345 59.3728H276.198C275.158 59.3728 274.16 58.9129 273.424 58.0941C272.688 57.2754 272.275 56.165 272.275 55.0072C272.275 53.8494 272.688 52.739 273.424 51.9203C274.16 51.1015 275.158 50.6416 276.198 50.6416V51.5147C275.366 51.5147 274.567 51.8827 273.979 52.5376C273.39 53.1926 273.059 54.0809 273.059 55.0072C273.059 55.9335 273.39 56.8218 273.979 57.4768C274.567 58.1317 275.366 58.4997 276.198 58.4997H299.345V59.3728Z" fill="#E6E6E6"/>
<path d="M275.413 82.5105H252.266C251.226 82.5105 250.228 82.0505 249.492 81.2318C248.756 80.4131 248.343 79.3027 248.343 78.1449C248.343 76.9871 248.756 75.8767 249.492 75.0579C250.228 74.2392 251.226 73.7793 252.266 73.7793V74.6524C251.434 74.6524 250.635 75.0204 250.047 75.6753C249.458 76.3303 249.127 77.2186 249.127 78.1449C249.127 79.0712 249.458 79.9595 250.047 80.6144C250.635 81.2694 251.434 81.6374 252.266 81.6374H275.413V82.5105Z" fill="#E6E6E6"/>
<path d="M305.623 105.212V104.339C306.455 104.339 307.253 103.971 307.842 103.316C308.43 102.661 308.761 101.772 308.761 100.846C308.761 99.9198 308.43 99.0315 307.842 98.3765C307.253 97.7215 306.455 97.3536 305.623 97.3536H282.475V96.4805H305.623C306.663 96.4805 307.661 96.9404 308.397 97.7591C309.132 98.5778 309.546 99.6882 309.546 100.846C309.546 102.004 309.132 103.114 308.397 103.933C307.661 104.752 306.663 105.212 305.623 105.212Z" fill="#E6E6E6"/>
<path d="M313.077 25.7576V24.8844C313.909 24.8844 314.707 24.5165 315.296 23.8615C315.885 23.2066 316.215 22.3182 316.215 21.392C316.215 20.4657 315.885 19.5774 315.296 18.9224C314.707 18.2674 313.909 17.8995 313.077 17.8995H289.929V17.0264H313.077C314.117 17.0264 315.115 17.4863 315.851 18.305C316.587 19.1237 317 20.2341 317 21.392C317 22.5498 316.587 23.6602 315.851 24.4789C315.115 25.2976 314.117 25.7576 313.077 25.7576Z" fill="#E6E6E6"/>
<path d="M276.983 34.0525H253.835C252.795 34.0525 251.797 33.5925 251.061 32.7738C250.325 31.9551 249.912 30.8447 249.912 29.6869C249.912 28.5291 250.325 27.4187 251.061 26.5999C251.797 25.7812 252.795 25.3213 253.835 25.3213V26.1944C253.003 26.1944 252.205 26.5624 251.616 27.2173C251.027 27.8723 250.697 28.7606 250.697 29.6869C250.697 30.6132 251.027 31.5015 251.616 32.1565C252.205 32.8114 253.003 33.1794 253.835 33.1794H276.983V34.0525Z" fill="#E6E6E6"/>
<path d="M51.0025 116.999H27.8552C26.8147 116.999 25.8168 116.539 25.081 115.72C24.3453 114.901 23.9319 113.791 23.9319 112.633C23.9319 111.475 24.3453 110.365 25.081 109.546C25.8168 108.728 26.8147 108.268 27.8552 108.268V109.141C27.0228 109.141 26.2245 109.509 25.6359 110.164C25.0473 110.819 24.7166 111.707 24.7166 112.633C24.7166 113.559 25.0473 114.448 25.6359 115.103C26.2245 115.758 27.0228 116.126 27.8552 116.126H51.0025V116.999Z" fill="#E6E6E6"/>
<path d="M63.1646 131.842V130.968C63.997 130.968 64.7953 130.6 65.3839 129.946C65.9726 129.291 66.3032 128.402 66.3032 127.476C66.3032 126.55 65.9726 125.661 65.3839 125.006C64.7953 124.351 63.997 123.983 63.1646 123.983H40.0173V123.11H63.1646C64.2051 123.11 65.203 123.57 65.9388 124.389C66.6745 125.208 67.0879 126.318 67.0879 127.476C67.0879 128.634 66.6745 129.744 65.9388 130.563C65.203 131.382 64.2051 131.842 63.1646 131.842Z" fill="#E6E6E6"/>
<path d="M27.0705 140.136H3.92327C2.88275 140.136 1.88485 139.677 1.1491 138.858C0.41334 138.039 0 136.929 0 135.771C0 134.613 0.41334 133.503 1.1491 132.684C1.88485 131.865 2.88275 131.405 3.92327 131.405V132.278C3.09085 132.278 2.29253 132.646 1.70393 133.301C1.11533 133.956 0.784653 134.845 0.784653 135.771C0.784653 136.697 1.11533 137.585 1.70393 138.24C2.29253 138.895 3.09085 139.263 3.92327 139.263H27.0705V140.136Z" fill="#E6E6E6"/>
<path d="M52.5718 68.5408H29.4245C28.384 68.5408 27.3861 68.0808 26.6503 67.2621C25.9146 66.4434 25.5012 65.333 25.5012 64.1752C25.5012 63.0173 25.9146 61.9069 26.6503 61.0882C27.3861 60.2695 28.384 59.8096 29.4245 59.8096V60.6827C28.5921 60.6827 27.7938 61.0506 27.2052 61.7056C26.6166 62.3606 26.2859 63.2489 26.2859 64.1752C26.2859 65.1014 26.6166 65.9898 27.2052 66.6447C27.7938 67.2997 28.5921 67.6677 29.4245 67.6677H52.5718V68.5408Z" fill="#E6E6E6"/>
<path d="M64.7339 83.3835V82.5104C65.5663 82.5104 66.3646 82.1425 66.9532 81.4875C67.5419 80.8325 67.8725 79.9442 67.8725 79.0179C67.8725 78.0917 67.5419 77.2034 66.9532 76.5484C66.3646 75.8934 65.5663 75.5255 64.7339 75.5255H41.5866V74.6523H64.7339C65.7744 74.6523 66.7723 75.1123 67.5081 75.931C68.2438 76.7497 68.6572 77.8601 68.6572 79.0179C68.6572 80.1758 68.2438 81.2862 67.5081 82.1049C66.7723 82.9236 65.7744 83.3835 64.7339 83.3835Z" fill="#E6E6E6"/>
<path d="M28.6399 91.6785H5.49257C4.45206 91.6785 3.45416 91.2185 2.7184 90.3998C1.98265 89.5811 1.56931 88.4707 1.56931 87.3129C1.56931 86.155 1.98265 85.0446 2.7184 84.2259C3.45416 83.4072 4.45206 82.9473 5.49257 82.9473V83.8204C4.66016 83.8204 3.86184 84.1883 3.27324 84.8433C2.68463 85.4983 2.35396 86.3866 2.35396 87.3129C2.35396 88.2391 2.68463 89.1274 3.27324 89.7824C3.86184 90.4374 4.66016 90.8053 5.49257 90.8053H28.6399V91.6785Z" fill="#E6E6E6"/>
<path d="M219.311 203.001H196.163C195.123 203.001 194.125 202.541 193.389 201.723C192.653 200.904 192.24 199.793 192.24 198.636C192.24 197.478 192.653 196.367 193.389 195.549C194.125 194.73 195.123 194.27 196.163 194.27V195.143C195.331 195.143 194.533 195.511 193.944 196.166C193.355 196.821 193.025 197.709 193.025 198.636C193.025 199.562 193.355 200.45 193.944 201.105C194.533 201.76 195.331 202.128 196.163 202.128H219.311V203.001Z" fill="#E6E6E6"/>
<path d="M245.204 226.575V225.702C246.037 225.702 246.835 225.334 247.424 224.679C248.012 224.024 248.343 223.136 248.343 222.21C248.343 221.284 248.012 220.395 247.424 219.74C246.835 219.085 246.037 218.717 245.204 218.717H222.057V217.844H245.204C246.245 217.844 247.243 218.304 247.978 219.123C248.714 219.942 249.127 221.052 249.127 222.21C249.127 223.368 248.714 224.478 247.978 225.297C247.243 226.116 246.245 226.575 245.204 226.575Z" fill="#E6E6E6"/>
<path d="M198.125 230.941H174.978C173.937 230.941 172.939 230.481 172.204 229.662C171.468 228.843 171.054 227.733 171.054 226.575C171.054 225.417 171.468 224.307 172.204 223.488C172.939 222.669 173.937 222.209 174.978 222.209V223.083C174.145 223.083 173.347 223.451 172.758 224.106C172.17 224.76 171.839 225.649 171.839 226.575C171.839 227.501 172.17 228.39 172.758 229.045C173.347 229.7 174.145 230.068 174.978 230.068H198.125V230.941Z" fill="#E6E6E6"/>
<path d="M114.167 228.758V227.885C114.999 227.885 115.798 227.517 116.386 226.862C116.975 226.207 117.306 225.319 117.306 224.392C117.306 223.466 116.975 222.578 116.386 221.923C115.798 221.268 114.999 220.9 114.167 220.9H91.0198V220.027H114.167C115.208 220.027 116.205 220.487 116.941 221.306C117.677 222.124 118.09 223.235 118.09 224.392C118.09 225.55 117.677 226.661 116.941 227.479C116.205 228.298 115.208 228.758 114.167 228.758Z" fill="#E6E6E6"/>
<path d="M44.3329 239.672H21.1856C20.1451 239.672 19.1472 239.212 18.4115 238.393C17.6757 237.575 17.2624 236.464 17.2624 235.307C17.2624 234.149 17.6757 233.038 18.4115 232.22C19.1472 231.401 20.1451 230.941 21.1856 230.941V231.814C20.3532 231.814 19.5549 232.182 18.9663 232.837C18.3777 233.492 18.047 234.38 18.047 235.307C18.047 236.233 18.3777 237.121 18.9663 237.776C19.5549 238.431 20.3532 238.799 21.1856 238.799H44.3329V239.672Z" fill="#E6E6E6"/>
<path d="M200.434 264.993H50.9577C50.8536 264.993 50.7538 264.947 50.6803 264.865C50.6067 264.783 50.5654 264.672 50.5654 264.556C50.5654 264.44 50.6067 264.329 50.6803 264.248C50.7538 264.166 50.8536 264.12 50.9577 264.12H200.434C200.538 264.12 200.638 264.166 200.712 264.248C200.785 264.329 200.826 264.44 200.826 264.556C200.826 264.672 200.785 264.783 200.712 264.865C200.638 264.947 200.538 264.993 200.434 264.993Z" fill="#3F3D56"/>
<path d="M73.1808 264.657C72.8785 265.429 71.8665 264.761 72.1645 263.997C73.5513 260.385 74.4973 256.582 74.9775 252.691C75.7945 246.014 75.3333 239.221 73.6241 232.757C73.5613 232.526 73.4984 232.29 73.4358 232.059C73.2865 231.526 73.1296 230.994 72.9649 230.47C71.0859 224.372 68.0514 218.795 64.0669 214.116C63.5452 213.505 64.3768 212.579 64.8986 213.191C67.4237 216.131 69.5801 219.438 71.3092 223.022C72.1356 224.728 72.8667 226.489 73.4984 228.296C73.7457 228.998 73.9771 229.71 74.1969 230.422C75.4824 234.662 76.2491 239.076 76.4763 243.545C76.8605 250.771 75.7324 257.998 73.1808 264.657Z" fill="#3F3D56"/>
<path d="M82.1651 197.937C80.8586 203.259 79.5534 208.581 78.2496 213.902C76.896 219.412 75.5451 224.918 74.1969 230.422C74.0045 231.203 73.8136 231.982 73.6241 232.757C73.5612 232.526 73.4984 232.29 73.4358 232.059C73.2865 231.526 73.1296 230.994 72.9649 230.47C73.1415 229.745 73.3179 229.02 73.4984 228.296C73.7417 227.305 73.985 226.314 74.2283 225.323C76.4958 216.076 78.7634 206.831 81.0311 197.588C81.0767 197.426 81.1772 197.29 81.3113 197.208C81.4454 197.127 81.6028 197.107 81.75 197.152C81.8972 197.198 82.0228 197.305 82.1003 197.451C82.1777 197.598 82.201 197.772 82.1651 197.937Z" fill="#3F3D56"/>
<path d="M57.9636 199.845C57.2776 201.52 56.5855 203.216 56.2887 205.026C55.9918 206.837 56.127 208.804 57.0071 210.362C57.7556 211.553 58.7553 212.521 59.9186 213.182C61.5612 214.224 63.6971 214.961 65.268 213.789C66.8547 212.606 67.0233 209.933 66.1344 208.052C65.2455 206.171 63.5939 204.91 61.9828 203.768C60.3717 202.627 59.1091 201.725 58.0644 199.946L57.9636 199.845Z" fill="#6892FF"/>
<path d="M85.9179 182.779C84.3464 183.353 82.7566 183.937 81.3591 184.922C79.9616 185.906 78.754 187.35 78.321 189.126C78.0415 190.546 78.0795 192.02 78.4315 193.419C78.8563 195.47 79.8176 197.716 81.6563 198.208C83.5134 198.704 85.3938 197.03 86.034 195.027C86.6742 193.025 86.3882 190.819 86.0501 188.727C85.7121 186.635 85.4523 184.991 85.9196 182.93L85.9179 182.779Z" fill="#6892FF"/>
<path d="M57.7174 220.573C58.1539 222.348 58.5981 224.144 59.4117 225.747C60.2253 227.349 61.4605 228.764 63.0332 229.334C64.2933 229.715 65.6184 229.747 66.8922 229.426C68.7537 229.057 70.8183 228.101 71.3513 226.082C71.8897 224.043 70.4814 221.87 68.7163 221.058C66.9513 220.246 64.9567 220.453 63.0624 220.724C61.1681 220.995 59.679 221.201 57.8528 220.578L57.7174 220.573Z" fill="#6892FF"/>
<path d="M62.4253 243.71C62.8619 245.486 63.306 247.282 64.1196 248.884C64.9332 250.487 66.1684 251.901 67.7411 252.471C69.0012 252.853 70.3264 252.885 71.6001 252.564C73.4617 252.194 75.5262 251.239 76.0593 249.22C76.5976 247.181 75.1893 245.007 73.4243 244.195C71.6592 243.384 69.6646 243.591 67.7703 243.862C65.876 244.132 64.3869 244.339 62.5608 243.716L62.4253 243.71Z" fill="#6892FF"/>
<path d="M88.2282 228.431C87.7916 230.206 87.3475 232.003 86.5339 233.605C85.7202 235.207 84.4851 236.622 82.9124 237.192C81.6522 237.574 80.3271 237.606 79.0534 237.285C77.1918 236.915 75.1273 235.959 74.5942 233.941C74.0558 231.902 75.4642 229.728 77.2292 228.916C78.9942 228.104 80.9888 228.312 82.8832 228.582C84.7775 228.853 86.2666 229.059 88.0927 228.437L88.2282 228.431Z" fill="#6892FF"/>
<path d="M92.9361 204.856C92.4995 206.632 92.0554 208.428 91.2418 210.03C90.4282 211.633 89.193 213.047 87.6203 213.617C86.3601 213.999 85.035 214.031 83.7613 213.71C81.8997 213.34 79.8352 212.385 79.3021 210.366C78.7637 208.327 80.1721 206.153 81.9371 205.341C83.7022 204.53 85.6968 204.737 87.5911 205.008C89.4854 205.278 90.9745 205.485 92.8006 204.862L92.9361 204.856Z" fill="#6892FF"/>
</g>
<defs>
<clipPath id="clip0">
<rect width="317" height="265" fill="white"/>
</clipPath>
</defs>
</svg>
